<?xml version='1.0' encoding='utf-8'?>
<svg xmlns:xlink="http://www.w3.org/1999/xlink" xmlns="http://www.w3.org/2000/svg" width="800" height="800" viewBox="0 0 211.66666 211.66667" version="1.1" id="svg8"> <defs id="defs2"> <linearGradient id="linearGradient4274"> <stop style="stop-color:#333333;stop-opacity:1" offset="0" id="stop4276"/> <stop style="stop-color:#808080;stop-opacity:1" offset="1" id="stop4278"/> </linearGradient> <linearGradient id="linearGradient4266"> <stop id="stop4268" offset="0" style="stop-color:#333333;stop-opacity:1"/> <stop id="stop4270" offset="1" style="stop-color:#666666;stop-opacity:1"/> </linearGradient> <linearGradient id="linearGradient4162"> <stop style="stop-color:#333333;stop-opacity:1" offset="0" id="stop4164"/> <stop style="stop-color:#999999;stop-opacity:1" offset="1" id="stop4166"/> </linearGradient> <linearGradient id="linearGradient4154"> <stop style="stop-color:#4d4d4d;stop-opacity:1" offset="0" id="stop4156"/> <stop style="stop-color:#666666;stop-opacity:1" offset="1" id="stop4158"/> </linearGradient> <linearGradient id="linearGradient4374"> <stop style="stop-color:#000000;stop-opacity:1" offset="0" id="stop4376"/> <stop style="stop-color:#666666;stop-opacity:1" offset="1" id="stop4378"/> </linearGradient> <linearGradient id="linearGradient4366"> <stop style="stop-color:#18a303;stop-opacity:1" offset="0" id="stop4368"/> <stop style="stop-color:#1bce00;stop-opacity:1" offset="1" id="stop4370"/> </linearGradient> <style type="text/css" id="style51071-8"> .str0 {stroke:#1F1A17;stroke-width:3} .fil0 {fill:none} </style> <style id="style2031-6" type="text/css"> .str0 {stroke:#1F1A17;stroke-width:0.0762} .fil0 {fill:none} .fil1 {fill:none;fill-rule:nonzero} </style> <style id="style5368-2" type="text/css"> .str0 {stroke:#000000;stroke-width:63} .str1 {stroke:#09098F;stroke-width:63} .fil5 {fill:none} .fil1 {fill:#000000} .fil2 {fill:#000000} .fil3 {fill:#4D66CC} .fil0 {fill:#576ECD} .fil4 {fill:#89A1D4} </style> <style type="text/css" id="style51071"> .str0 {stroke:#1F1A17;stroke-width:3} .fil0 {fill:none} </style> <style id="style2031" type="text/css"> .str0 {stroke:#1F1A17;stroke-width:0.0762} .fil0 {fill:none} .fil1 {fill:none;fill-rule:nonzero} </style> <style id="style5368" type="text/css"> .str0 {stroke:#000000;stroke-width:63} .str1 {stroke:#09098F;stroke-width:63} .fil5 {fill:none} .fil1 {fill:#000000} .fil2 {fill:#000000} .fil3 {fill:#4D66CC} .fil0 {fill:#576ECD} .fil4 {fill:#89A1D4} </style> <linearGradient y2="1982.2323" x2="158.4942" y1="2022.2076" x1="158.4942" gradientUnits="userSpaceOnUse" id="linearGradient4380" xlink:href="#linearGradient4154"/> <linearGradient y2="1982.2323" x2="158.4942" y1="2022.2076" x1="158.4942" gradientUnits="userSpaceOnUse" id="linearGradient4525" xlink:href="#linearGradient4374"/> <linearGradient y2="1982.2323" x2="158.4942" y1="2053.0254" x1="158.4942" gradientUnits="userSpaceOnUse" id="linearGradient4527" xlink:href="#linearGradient4374"/> <linearGradient gradientTransform="translate(541.11319)" y2="1972.8456" x2="160.76947" y1="2011.2181" x1="160.76947" gradientUnits="userSpaceOnUse" id="linearGradient4531" xlink:href="#linearGradient4366"/> <filter id="filter4026" style="color-interpolation-filters:sRGB"> <feGaussianBlur result="result8" stdDeviation="1" id="feGaussianBlur4028"/> <feOffset result="result11" dy="1" dx="1" id="feOffset4030"/> <feComposite operator="in" in="SourceGraphic" result="result6" in2="result11" id="feComposite4032"/> <feFlood flood-color="rgb(51,51,51)" flood-opacity="1" in="result6" result="result10" id="feFlood4034"/> <feBlend result="result12" in="result6" mode="normal" in2="result10" id="feBlend4036"/> <feComposite operator="in" result="result2" in2="SourceGraphic" id="feComposite4038"/> </filter> <filter id="filter4195" style="color-interpolation-filters:sRGB"> <feGaussianBlur id="feGaussianBlur4197" stdDeviation="1" result="result8"/> <feOffset id="feOffset4199" dx="1" dy="1" result="result11"/> <feComposite id="feComposite4201" in2="result11" result="result6" in="SourceGraphic" operator="in"/> <feFlood id="feFlood4203" result="result10" in="result6" flood-opacity="1" flood-color="rgb(16,104,2)"/> <feBlend id="feBlend4205" in2="result10" mode="normal" in="result6" result="result12"/> <feComposite id="feComposite4207" in2="SourceGraphic" result="result2" operator="in"/> </filter> <linearGradient y2="1982.7227" x2="158.4942" y1="2017.2126" x1="158.4942" gradientUnits="userSpaceOnUse" id="linearGradient4209" xlink:href="#linearGradient4162"/> <filter id="filter4225" style="color-interpolation-filters:sRGB"> <feGaussianBlur id="feGaussianBlur4227" stdDeviation="4" result="result8"/> <feOffset id="feOffset4229" dx="1" dy="1" result="result11"/> <feComposite id="feComposite4231" in2="result11" result="result6" in="SourceGraphic" operator="in"/> <feFlood id="feFlood4233" result="result10" in="result6" flood-opacity="1" flood-color="rgb(255,255,255)"/> <feBlend id="feBlend4235" in2="result10" mode="normal" in="result6" result="result12"/> <feComposite id="feComposite4237" in2="SourceGraphic" result="result2" operator="in"/> </filter> <linearGradient y2="1982.7227" x2="158.4942" y1="2017.2126" x1="158.4942" gradientUnits="userSpaceOnUse" id="linearGradient4272" xlink:href="#linearGradient4266"/> </defs> <metadata id="metadata5"> </metadata> <g id="layer1" transform="translate(0,-85.333317)"> <g style="font-style:normal;font-variant:normal;font-weight:normal;font-stretch:normal;font-size:14px;font-family:Vegur;-inkscape-font-specification:Vegur;fill:#128902;fill-opacity:1;stroke:none" id="text10617" transform="matrix(0.26458333,0,0,0.26458333,-308.57817,-238.8562)"/> </g> <g id="layer2" transform="translate(0,144.72708)"> <path style="fill:#5fbee8;stroke:none;stroke-width:0.26458332px;stroke-linecap:butt;stroke-linejoin:miter;stroke-opacity:1" d="M 0,-144.72708 H 211.66666 V 66.939584 H 0 Z" id="path1235"/> <ellipse style="opacity:1;fill:#1c91c5;fill-opacity:1;stroke:none;stroke-width:0.79374999;stroke-linecap:round;stroke-linejoin:round;stroke-miterlimit:4;stroke-dasharray:none;stroke-dashoffset:0;stroke-opacity:1" id="path1237" cx="108.53252" cy="24.844641" rx="52.794327" ry="15.154182"/> <g id="g1494" transform="matrix(1.0059766,0.03907859,-0.03907859,1.0059766,159.92134,-115.5459)" style="stroke-width:0.99330974"> <path style="fill:#f18d46;fill-opacity:1;stroke:none;stroke-width:0.26281315px;stroke-linecap:butt;stroke-linejoin:miter;stroke-opacity:1" d="m -41.910679,27.384375 c 0,0 -1.5875,-19.8437485 17.859375,-7.672916 13.096875,9.128124 7.805208,21.56354 -1.852083,19.976041 C -35.560679,38.1 -41.910679,27.384375 -41.910679,27.384375 Z" id="path1207"/> <path id="path1314" transform="scale(0.26458333)" d="M -150.54102,69.226562 C -160.1073,82.158219 -158.40234,103.5 -158.40234,103.5 c 0,0 23.99999,40.5 60.499996,46.5 8.679096,1.4267 16.4208,-0.14796 22.521485,-3.83398 -14.026668,-3.66475 -13.237815,-15.51955 -14.421875,-22.91993 -3.535533,-23.33452 -18.031236,-30.052994 -36.416016,-27.578121 -14.98762,1.873454 -21.86171,-17.099224 -24.32227,-26.441407 z" style="fill:#d7732b;fill-opacity:1;stroke:none;stroke-width:0.99330962px;stroke-linecap:butt;stroke-linejoin:miter;stroke-opacity:1"/> <path id="path1366" transform="scale(0.26458333)" d="m -155.08984,77.935547 c -4.38603,12.040519 -3.3125,25.564453 -3.3125,25.564453 0,0 4.02615,6.78973 11.28125,15.21875 18.80259,12.1306 54.736076,22.89437 51.662106,6.29492 -3.535537,-19.09189 -16.086806,-19.62141 -35.355466,-25.808592 -13.19607,-4.2859 -20.61874,-14.456376 -24.27539,-21.269531 z" style="fill:#ad5313;fill-opacity:1;stroke:none;stroke-width:0.99330962px;stroke-linecap:butt;stroke-linejoin:miter;stroke-opacity:1"/> <path id="path1224" d="m -31.243807,72.552242 c 0,0 16.650891,-7.483547 23.3860832,14.218739 6.7351918,16.837979 9.7286104,28.437479 5.9868372,30.495449 -3.7417733,2.05798 -18.8959554,1.30962 -22.0764624,-7.67063 -3.180507,-8.98026 -7.296458,-37.043558 -7.296458,-37.043558 z" style="fill:#f18d46;fill-opacity:1;stroke:none;stroke-width:0.26281315px;stroke-linecap:butt;stroke-linejoin:miter;stroke-opacity:1"/> <path id="path1419" d="m -5.1449382,99.118832 c 0,0 7.5770908,18.521778 3.3675959,17.960508 -4.2094948,-0.56126 -7.670635,-0.8419 -6.7351919,-4.20949 0.9354434,-3.3676 2.4321526,-13.938105 3.367596,-13.751018 z" style="fill:#f3a468;fill-opacity:1;stroke:none;stroke-width:0.26281315px;stroke-linecap:butt;stroke-linejoin:miter;stroke-opacity:1"/> <path id="path1290" transform="scale(0.26458333)" d="m -107,282 c -3.53213,2.30184 -6.35469,5.25737 -8.55859,8.73828 4.88194,31.12159 15.963588,97.82998 25.048824,123.48242 4.051986,11.4409 13.254369,19.33421 24.205078,24.49024 C -55.532054,431.3315 -49.781211,403.03806 -48,354.5 -45.999999,300 -107,282 -107,282 Z" style="fill:#d7732b;fill-opacity:1;stroke:none;stroke-width:0.99330962px;stroke-linecap:butt;stroke-linejoin:miter;stroke-opacity:1"/> <path id="path1368" d="m -24.508615,81.251866 c 0,0 5.332027,5.332026 5.799749,12.067217 0.467722,6.735197 0.561266,7.390007 0.65481,12.722027 0.09354,5.33203 2.993419,10.10279 0.280633,8.51254 -2.712785,-1.59026 -6.735192,-33.301784 -6.735192,-33.301784 z" style="fill:#ad5313;fill-opacity:1;stroke:none;stroke-width:0.26281315px;stroke-linecap:butt;stroke-linejoin:miter;stroke-opacity:1"/> <path id="path1227" d="m -71.467868,72.365155 c 0,0 -11.038231,-4.677217 -17.960512,5.986835 -7.670636,11.973676 -23.38608,46.58508 -13.09621,51.2623 8.980259,0.37417 18.895959,-8.98026 23.386086,-20.01849 4.490127,-11.038234 7.670636,-37.230645 7.670636,-37.230645 z" style="fill:#f18d46;fill-opacity:1;stroke:none;stroke-width:0.26281315px;stroke-linecap:butt;stroke-linejoin:miter;stroke-opacity:1"/> <path id="path1304" transform="scale(0.26458333)" d="m -291.7168,269.64648 c -14.09239,0.0275 -32.38023,5.07426 -46.27929,26.48633 -8.03525,12.54282 -18.40642,31.66953 -28.37305,53.12696 25.44012,-31.31168 62.27451,-71.23112 82.46484,-67.97461 5.20541,0.83958 9.39466,0.97406 12.69336,0.60156 0.64435,-4.84227 1.09571,-8.38086 1.09571,-8.38086 0,0 -9.1671,-3.88365 -21.60157,-3.85938 z" style="fill:#d7732b;fill-opacity:1;stroke:none;stroke-width:0.99330962px;stroke-linecap:butt;stroke-linejoin:miter;stroke-opacity:1"/> <path id="path1212" d="m -72.5904,65.442874 c 0,0 -25.256971,48.455966 2.245064,63.048876 20.766841,9.54152 52.384825,-3.1805 51.075204,-19.27013 C -20.579753,93.506172 -22.637728,70.120088 -34.798492,66.378317 -46.959255,62.636542 -72.5904,65.442874 -72.5904,65.442874 Z" style="fill:#f18d46;fill-opacity:1;stroke:none;stroke-width:0.26281315px;stroke-linecap:butt;stroke-linejoin:miter;stroke-opacity:1"/> <path id="path1273" transform="scale(0.26458333)" d="m -202.83594,243.52539 c -10.64296,0.0222 -20.90605,0.35349 -30.3125,0.79883 -0.56878,0.0268 -1.10056,0.0583 -1.66211,0.0859 -9.48941,0.46996 -17.87319,1.03913 -24.47265,1.56836 -0.0791,0.006 -0.16552,0.0132 -0.24414,0.0195 -2.0448,0.16459 -3.79821,0.31037 -5.46289,0.45703 -0.48661,0.0424 -0.92839,0.0807 -1.38086,0.12109 -1.45979,0.1315 -2.12531,0.18959 -3.19727,0.29297 -3.00228,0.28341 -4.78906,0.47461 -4.78906,0.47461 0,0 -0.31489,0.6073 -0.88867,1.75977 -0.41788,0.83392 -1.0645,2.18864 -1.77735,3.66601 -0.27674,0.57545 -0.44715,0.91184 -0.76172,1.57617 -2.06629,4.34819 -4.85463,10.46304 -8.09765,18.22071 -21.79218,52.12934 -60.09334,170.5686 20.00976,213.07226 50.20324,23.06635 117.18216,11.70331 157.64453,-15.39258 1.67075,-23.28486 -5.62377,-42.31973 -24,-36.93359 -76.36751,15.55635 -98.73971,-12.17149 -97.27148,-88.8125 0.34063,-17.78085 13.6703,-30.57624 28.64648,-39.37109 48.47348,1.88156 84.8119,-23.83176 96.11133,-32.95118 -1.38205,-2.02248 -2.82815,-3.93594 -4.34179,-5.73437 -10.25594,-3.13732 -29.41316,-8.63732 -51.94922,-13.47266 -0.94611,-2.8466 -2.08327,-5.48659 -3.41211,-7.91406 -12.34538,-1.13811 -25.54993,-1.55802 -38.39063,-1.53125 z" style="fill:#d7732b;fill-opacity:1;stroke:none;stroke-width:0.99330962px;stroke-linecap:butt;stroke-linejoin:miter;stroke-opacity:1"/> <path id="path1370" transform="scale(0.26458333)" d="m -313.64453,376.49219 c -3.69306,43.58936 5.71848,86.83266 47.77148,109.14648 31.11878,14.29782 68.67954,15.35874 102.37891,7.65235 1.38916,-4.80839 2.55687,-9.60466 3.49414,-14.29102 4.5,-22.49998 -42,-42.5 -75.5,-60.5 -30.26398,-16.26124 -69.50544,-37.36239 -78.14453,-42.00781 z" style="fill:#ad5313;fill-opacity:1;stroke:none;stroke-width:0.99330962px;stroke-linecap:butt;stroke-linejoin:miter;stroke-opacity:1"/> <path id="path1359" transform="scale(0.26458333)" d="m -202.83594,243.52539 c -10.64296,0.0222 -20.90605,0.35349 -30.3125,0.79883 -0.56878,0.0268 -1.10056,0.0583 -1.66211,0.0859 -9.48941,0.46996 -17.87319,1.03913 -24.47265,1.56836 -0.0791,0.006 -0.16552,0.0132 -0.24414,0.0195 -2.0448,0.16459 -3.79821,0.31037 -5.46289,0.45703 -0.48661,0.0424 -0.92839,0.0807 -1.38086,0.12109 -1.45979,0.1315 -2.12531,0.18959 -3.19727,0.29297 -3.00228,0.28341 -4.78906,0.47461 -4.78906,0.47461 0,0 -0.31489,0.6073 -0.88867,1.75977 -0.41788,0.83392 -1.0645,2.18864 -1.77735,3.66601 -0.27674,0.57545 -0.44715,0.91184 -0.76172,1.57617 -2.06629,4.34819 -4.85463,10.46304 -8.09765,18.22071 -0.37131,0.8882 -0.75845,1.84157 -1.13867,2.76757 11.29414,11.86426 26.43327,24.81799 40.52148,27.16602 26.01239,4.3354 82.19064,6.80656 138.57812,-34.59961 -0.38695,-0.48633 -0.76596,-0.98635 -1.1621,-1.45703 -10.25594,-3.13732 -29.41316,-8.63732 -51.94922,-13.47266 -0.94611,-2.8466 -2.08327,-5.48659 -3.41211,-7.91406 -12.34538,-1.13811 -25.54993,-1.55802 -38.39063,-1.53125 z" style="fill:#ad5313;fill-opacity:1;stroke:none;stroke-width:0.99330962px;stroke-linecap:butt;stroke-linejoin:miter;stroke-opacity:1"/> <path id="path1217" d="m -50.32685,130.36264 c 0,0 7.577089,5.7062 12.067219,11.31886 4.490128,5.61266 21.328107,10.57051 34.9855795,1.02899 8.9802556,-7.20291 15.3125925,-32.51153 -19.8769895,-31.18862 -17.330208,3.04271 -27.231827,15.72112 -27.175809,18.84077 z" style="fill:#f18d46;fill-opacity:1;stroke:none;stroke-width:0.26281315px;stroke-linecap:butt;stroke-linejoin:miter;stroke-opacity:1"/> <path id="path1297" d="m -35.586458,134.40833 c 0,0 -0.396875,14.08906 14.552084,12.89844 9.19427,-1.05834 20.3729157,-4.69636 21.034374,-17.4625 -2.6458332,-3.175 -35.586458,4.56406 -35.586458,4.56406 z" style="fill:#d7732b;fill-opacity:1;stroke:none;stroke-width:0.26281315px;stroke-linecap:butt;stroke-linejoin:miter;stroke-opacity:1"/> <path id="path1295" transform="scale(0.26458333)" d="m -168.27734,461.26367 c -14.40779,13.39647 -22.02932,26.11432 -21.9336,31.44531 0,0 28.63685,21.5661 45.60742,42.7793 4.45571,5.56964 12.15078,10.95887 21.97852,15.24024 -39.81669,-21.12947 -20.79537,-70.44241 -22.33203,-77.81836 -1.20312,-5.77504 -14.72355,-9.69729 -23.32031,-11.64649 z" style="fill:#d7732b;fill-opacity:1;stroke:none;stroke-width:0.99330962px;stroke-linecap:butt;stroke-linejoin:miter;stroke-opacity:1"/> <path id="path1374" transform="scale(0.26458333)" d="m -188.63477,486.9668 c -1.05889,2.35165 -1.60175,4.31756 -1.57617,5.74218 0,0 28.63685,21.5661 45.60742,42.7793 2.0368,2.546 4.77958,5.04768 8.06446,7.42969 -1.66527,-3.7611 -4.16225,-8.07746 -6.15625,-12.22461 -0.16282,-0.33863 -0.32734,-0.67787 -0.48242,-1.01367 -0.2496,-0.53399 -0.48933,-1.07185 -0.7168,-1.61133 -5.6e-4,-10e-4 -0.001,-0.003 -0.002,-0.004 -3.88908,-9.19237 -14.49503,-19.09245 -24.39454,-31.11328 -6.52891,-7.92798 -15.1886,-9.69364 -20.34375,-9.98437 z" style="fill:#ad5313;fill-opacity:1;stroke:none;stroke-width:0.99330962px;stroke-linecap:butt;stroke-linejoin:miter;stroke-opacity:1"/> <path id="path1205" d="m -64.822913,27.384375 c 0,0 1.5875,-19.8437485 -17.859375,-7.672916 -13.096875,9.128124 -7.805208,21.56354 1.852083,19.976041 9.657292,-1.5875 16.007292,-12.303125 16.007292,-12.303125 z" style="fill:#f18d46;fill-opacity:1;stroke:none;stroke-width:0.26281315px;stroke-linecap:butt;stroke-linejoin:miter;stroke-opacity:1"/> <path id="path1309" transform="scale(0.26458333)" d="m -281.34766,85.568359 c -8.72421,0.0742 -17.58203,6.742188 -17.58203,6.742188 -0.35356,4.242641 5.12683,-0.176663 15.55664,-1.060547 8.88989,-0.46789 4.3511,11.73728 1.15821,20.11523 -29.58954,18.13866 -47.73528,4.29663 -56.49219,-6.82226 -10.98734,26.36205 6.78032,49.80114 33.20703,45.45703 36.5,-6 60.5,-46.5 60.5,-46.5 0,0 0.65915,-8.409206 -1.20312,-17.865234 -5.34208,4.284558 -12.74074,10.071163 -23.20508,16.398434 -1.3445,1.1308 -2.66363,2.18393 -3.96875,3.19336 2.92621,-5.97591 4.55507,-12.397966 1.67187,-15.921872 -2.83395,-2.784233 -6.22875,-3.765364 -9.64258,-3.736329 z" style="fill:#d7732b;fill-opacity:1;stroke:none;stroke-width:0.99330962px;stroke-linecap:butt;stroke-linejoin:miter;stroke-opacity:1"/> <path id="path1364" transform="scale(0.26458333)" d="m -245.99219,86.886719 c -55.0743,43.847461 -83.09416,46.224371 -94.15429,44.320311 4.70927,13.17751 17.94183,21.53894 34.64648,18.79297 36.5,-6 60.5,-46.5 60.5,-46.5 0,0 0.57609,-7.686268 -0.99219,-16.613281 z" style="fill:#ad5313;fill-opacity:1;stroke:none;stroke-width:0.99330962px;stroke-linecap:butt;stroke-linejoin:miter;stroke-opacity:1"/> <ellipse ry="27.912207" rx="35.070862" cy="50.388889" cx="-52.298595" id="path1203" style="opacity:1;fill:#f18d46;fill-opacity:1;stroke:none;stroke-width:5.25626373;stroke-linecap:round;stroke-linejoin:round;stroke-miterlimit:4;stroke-dasharray:none;stroke-dashoffset:0;stroke-opacity:1"/> <path id="path1268" transform="scale(0.26458333)" d="m -221.67969,86.751953 a 132.55129,105.49495 0 0 0 -108.53515,103.693357 132.55129,105.49495 0 0 0 132.55078,105.4961 132.55129,105.49495 0 0 0 37.61523,-4.41407 c 17.89144,-14.55673 39.7568,-44.8209 39.48633,-61.86132 -1.76777,-35.00179 -28.2832,-36.41602 -28.2832,-36.41602 0,0 -67.52922,67.52804 -86.6211,24.39453 -29.02724,-60.65395 -7.35512,-105.34498 13.78711,-130.892577 z" style="fill:#d7732b;fill-opacity:1;stroke:none;stroke-width:0.99330962px;stroke-linecap:butt;stroke-linejoin:miter;stroke-opacity:1"/> <path id="path1214" d="m -69.97116,109.5958 c 0,0 -27.502032,0.74835 -22.450639,19.45722 4.115951,13.65747 10.289876,15.90253 13.283295,16.27671 2.993419,0.37418 21.702284,6.36102 30.86963,-9.9157 5.238481,-8.2319 -2.993419,-22.07646 -21.702286,-25.81823 z" style="fill:#f18d46;fill-opacity:1;stroke:none;stroke-width:0.26281315px;stroke-linecap:butt;stroke-linejoin:miter;stroke-opacity:1"/> <path id="path1285" transform="scale(0.26458333)" d="m -331.08398,436.61523 c -0.25874,-0.0142 -0.4494,0.0667 -0.54883,0.23243 -12.64211,13.891 -18.24309,31.32472 -18.1875,48.84765 0.16479,0.68527 0.32118,1.36601 0.50976,2.06446 15.55635,51.61878 38.89137,60.10335 50.20508,61.51757 6.95208,0.86902 36.33153,9.7424 65.99024,2.18555 24.51749,-17.55416 36.69083,-44.95593 35.65625,-46.91016 -18.38478,34.47149 -59.39825,42.25027 -79.55079,39.77539 -48.43681,-4.77297 -55.15394,-48.08429 -49.32031,-72.65624 6.56835,-25.95303 -2.25275,-34.91931 -4.7539,-35.05665 z" style="fill:#d7732b;fill-opacity:1;stroke:none;stroke-width:0.99330962px;stroke-linecap:butt;stroke-linejoin:miter;stroke-opacity:1"/> <path id="path1219" d="m -70.643746,114.56458 c 0,0 -12.435417,-1.98437 -14.419792,11.77396 -2.116667,8.59896 1.190625,14.94896 6.085417,16.53646 4.894791,1.5875 18.917708,5.15937 26.193749,-7.27605 3.042709,-8.20208 1.190625,-17.99166 -17.859374,-21.03437 z" style="fill:#ffb153;fill-opacity:1;stroke:none;stroke-width:0.26281315px;stroke-linecap:butt;stroke-linejoin:miter;stroke-opacity:1"/> <path id="path1341" transform="scale(0.26458333)" d="m -307.83008,446.36914 c -6.38451,6.70081 -11.57237,16.58782 -13.66992,31.13086 -8,32.50001 4.5,56.5 23,62.5 17.01149,5.51724 63.19302,17.37009 91.89648,-17.30078 -0.32044,0.0241 -0.60459,0.0362 -0.93164,0.0625 -83.72417,1.72034 -97.91907,-54.91767 -100.29492,-76.39258 z" style="fill:#eb9f46;fill-opacity:1;stroke:none;stroke-width:0.99330962px;stroke-linecap:butt;stroke-linejoin:miter;stroke-opacity:1"/> <path id="path1222" d="m -15.874999,115.62292 c 0,0 -15.345834,-1.05834 -20.108334,15.7427 -1.455208,6.74688 0,4.36563 1.5875,8.86354 1.5875,4.49792 13.758334,10.18646 25.9291667,2.38125 8.0697913,-6.08541 13.0968746,-14.94896 3.175,-23.68021 -6.7468747,-4.36562 -8.0697917,-3.96874 -10.5833327,-3.30728 z" style="fill:#ffb153;fill-opacity:1;stroke:none;stroke-width:0.26281315px;stroke-linecap:butt;stroke-linejoin:miter;stroke-opacity:1"/> <path id="path1229" d="m -48.923686,47.295273 c 0,0 -17.118612,0.654809 -17.679878,14.125194 -0.561266,11.505954 15.528358,12.534939 18.708867,11.69304 3.180506,-0.841898 13.657471,-0.935442 14.873549,-11.69304 0.748353,-8.606078 -9.44798,-13.938104 -15.902538,-14.125194 z" style="fill:#ffb153;fill-opacity:1;stroke:none;stroke-width:0.26281315px;stroke-linecap:butt;stroke-linejoin:miter;stroke-opacity:1"/> <path id="path1319" transform="scale(0.26458333)" d="m -226.40039,191.18945 c -0.22227,0.003 -0.44423,0.026 -0.66602,0.0391 -12.82365,7.79568 -23.81059,20.42881 -24.66406,40.9121 -2.12132,43.48708 58.69012,47.37534 70.71094,44.19336 2.3932,-0.63349 5.90475,-1.16636 9.99023,-1.91601 7.87257,-12.0731 15.78209,-39.96554 -1.2207,-40.16797 -37.74999,1.25 -33.16488,-26.3278 -43.77148,-38.52539 -3.27037,-3.35876 -6.8489,-4.58488 -10.37891,-4.53516 z" style="fill:#eb9f46;fill-opacity:1;stroke:none;stroke-width:0.99330962px;stroke-linecap:butt;stroke-linejoin:miter;stroke-opacity:1"/> <path id="path1232" transform="scale(0.26458333)" d="m -180.0625,197.94922 c -9.66549,0.0919 -34.77245,2.3445 -27.65039,23.76172 6.50845,14.25661 22.11508,16.55867 28.13086,16.31445 0.37819,4.62956 1.02935,17.24403 -2.36914,24.48633 -4.58219,0.42029 -26.34098,1.56585 -42.67383,-25.63672 0,0 11.3735,30.86577 42.33008,27.42383 0.22311,0.0653 0.48821,0.0368 0.7832,-0.11133 0.005,0.0413 0.0117,0.1875 0.0117,0.1875 0,0 37.07288,3.12059 40.43164,-28.69922 -0.52615,-1.57845 -4.72238,28.14592 -39.31445,27.40625 1.68033,-2.51989 3.50117,-9.36549 3.15234,-25.37891 4.14209,-0.96106 23.50193,-3.87956 25.91016,-19.70507 0.70711,-8.66206 -12.42217,-20.97136 -25.10352,-19.97657 0,0 -1.40817,-0.0935 -3.63867,-0.0723 z" style="fill:#783709;fill-opacity:1;stroke:none;stroke-width:0.99330962px;stroke-linecap:butt;stroke-linejoin:miter;stroke-opacity:1"/> <path id="path1242" transform="scale(0.26458333)" d="m -222.37109,160.75 a 12.499999,12.499999 0 0 0 -12.5,12.5 12.499999,12.499999 0 0 0 12.5,12.5 12.499999,12.499999 0 0 0 12.5,-12.5 12.499999,12.499999 0 0 0 -12.5,-12.5 z m 74.5,1.25 a 12.499999,12.499999 0 0 0 -12.5,12.5 12.499999,12.499999 0 0 0 12.5,12.5 12.499999,12.499999 0 0 0 12.5,-12.5 12.499999,12.499999 0 0 0 -12.5,-12.5 z" style="opacity:1;fill:#783709;fill-opacity:1;stroke:none;stroke-width:19.86619568;stroke-linecap:round;stroke-linejoin:round;stroke-miterlimit:4;stroke-dasharray:none;stroke-dashoffset:0;stroke-opacity:1"/> <circle r="2.6789062" cy="120.55078" cx="-69.353905" id="path1247" style="opacity:1;fill:#783709;fill-opacity:1;stroke:none;stroke-width:5.25626373;stroke-linecap:round;stroke-linejoin:round;stroke-miterlimit:4;stroke-dasharray:none;stroke-dashoffset:0;stroke-opacity:1"/> <circle style="opacity:1;fill:#783709;fill-opacity:1;stroke:none;stroke-width:5.25626373;stroke-linecap:round;stroke-linejoin:round;stroke-miterlimit:4;stroke-dasharray:none;stroke-dashoffset:0;stroke-opacity:1" id="circle1249" cx="-76.034637" cy="128.28984" r="2.6789062"/> <circle r="2.6789062" cy="136.49193" cx="-77.622139" id="circle1251" style="opacity:1;fill:#783709;fill-opacity:1;stroke:none;stroke-width:5.25626373;stroke-linecap:round;stroke-linejoin:round;stroke-miterlimit:4;stroke-dasharray:none;stroke-dashoffset:0;stroke-opacity:1"/> <path id="path1253" d="m -66.013538,129.11666 c 0,0 -4.564063,-0.33073 -4.828646,1.52136 -0.198437,1.78593 3.241146,3.50573 0.595313,4.82864 -2.645834,1.32292 -3.902605,1.71979 -2.248959,3.30729 1.653646,1.5875 13.559896,3.83646 16.139583,-2.05052 1.455209,-6.01926 -0.330728,-10.45104 -7.672916,-12.36927 -4.123227,-0.86595 1.082405,4.99302 -1.984375,4.7625 z" style="fill:#783709;fill-opacity:1;stroke:none;stroke-width:0.26281315px;stroke-linecap:butt;stroke-linejoin:miter;stroke-opacity:1"/> <circle transform="scale(-1,1)" style="opacity:1;fill:#783709;fill-opacity:1;stroke:none;stroke-width:5.25626373;stroke-linecap:round;stroke-linejoin:round;stroke-miterlimit:4;stroke-dasharray:none;stroke-dashoffset:0;stroke-opacity:1" id="circle1255" cx="17.445431" cy="120.55078" r="2.6789062"/> <circle transform="scale(-1,1)" r="2.6789062" cy="128.28984" cx="10.764698" id="circle1257" style="opacity:1;fill:#783709;fill-opacity:1;stroke:none;stroke-width:5.25626373;stroke-linecap:round;stroke-linejoin:round;stroke-miterlimit:4;stroke-dasharray:none;stroke-dashoffset:0;stroke-opacity:1"/> <path id="path1346" transform="scale(0.26458333)" d="m -133.27344,488.17188 c -0.98621,2.63912 -1.89967,5.41103 -2.72656,8.32812 -5.5,25.50002 0,16.50003 6,33.5 6,17.00001 52.000002,38.50001 98,9 8.454525,-6.37554 16.017328,-13.5596 21.746094,-21.31445 C -85.133231,550.7697 -121.1007,508.3759 -133.27344,488.17188 Z" style="fill:#eb9f46;fill-opacity:1;stroke:none;stroke-width:0.99330962px;stroke-linecap:butt;stroke-linejoin:miter;stroke-opacity:1"/> <circle transform="scale(-1,1)" style="opacity:1;fill:#783709;fill-opacity:1;stroke:none;stroke-width:5.25626373;stroke-linecap:round;stroke-linejoin:round;stroke-miterlimit:4;stroke-dasharray:none;stroke-dashoffset:0;stroke-opacity:1" id="circle1259" cx="9.1771965" cy="136.49193" r="2.6789062"/> <path style="fill:#783709;fill-opacity:1;stroke:none;stroke-width:0.26281315px;stroke-linecap:butt;stroke-linejoin:miter;stroke-opacity:1" d="m -20.785796,129.11666 c 0,0 4.564063,-0.33073 4.828646,1.52136 0.198437,1.78593 -3.241146,3.50573 -0.595313,4.82864 2.645834,1.32292 3.902605,1.71979 2.248959,3.30729 -1.653646,1.5875 -13.559896,3.83646 -16.139583,-2.05052 -1.455209,-6.01926 0.330728,-10.45104 7.672916,-12.36927 4.123227,-0.86595 -1.082405,4.99302 1.984375,4.7625 z" id="path1262"/> <path id="path1324" transform="scale(0.26458333)" d="m -200.92578,202.22656 c -6.17852,3.32671 -10.21156,9.18648 -6.78711,19.48438 6.50845,14.25661 22.11508,16.55867 28.13086,16.31445 0.18863,2.30912 0.44434,6.60582 0.23242,11.23047 0.64611,-0.0384 1.2931,-0.1152 1.93945,-0.20508 0.19239,-3.15509 0.27749,-6.85794 0.17969,-11.34766 4.14209,-0.96105 23.50193,-3.87956 25.91016,-19.70507 0.0696,-0.85289 -5.2e-4,-1.74101 -0.18555,-2.64844 -6.97952,13.06356 -15.71037,8.70915 -29.16016,9.36523 -19.40668,2.57937 -21.05678,-12.83136 -20.25976,-22.48828 z" style="fill:#3f1d05;fill-opacity:1;stroke:none;stroke-width:0.99330962px;stroke-linecap:butt;stroke-linejoin:miter;stroke-opacity:1"/> <path id="path1329" transform="scale(0.26458333)" d="m -231.83203,165.10352 a 12.499999,12.499999 0 0 0 -3.03906,8.14648 12.499999,12.499999 0 0 0 12.5,12.5 12.499999,12.499999 0 0 0 11.3789,-7.36133 c -11.88462,-0.17523 -18.1469,-8.37782 -20.83984,-13.28515 z m 72.88476,3.61328 a 12.499999,12.499999 0 0 0 -1.42382,5.7832 12.499999,12.499999 0 0 0 12.5,12.5 12.499999,12.499999 0 0 0 9.00781,-3.83789 c -8.4629,-3.14137 -15.63873,-9.65943 -20.08399,-14.44531 z" style="fill:#3f1d05;fill-opacity:1;stroke:none;stroke-width:0.99330962px;stroke-linecap:butt;stroke-linejoin:miter;stroke-opacity:1"/> <path id="path1390" transform="scale(0.26458333)" d="m -346.41406,462.68945 c -2.33156,7.44956 -3.43096,15.21787 -3.40625,23.00586 0.16479,0.68527 0.32118,1.36601 0.50976,2.06446 15.55635,51.61877 38.89137,60.10335 50.20508,61.51757 6.95208,0.86902 36.33153,9.7424 65.99024,2.18555 0.29772,-0.21317 0.58482,-0.43438 0.8789,-0.65039 0.53436,-3.73978 -28.06067,2.60208 -49.54492,-2.5957 -57.44832,-13.16524 -63.97615,-68.71362 -64.63281,-85.52735 z" style="fill:#ad5313;fill-opacity:1;stroke:none;stroke-width:0.99330962px;stroke-linecap:butt;stroke-linejoin:miter;stroke-opacity:1"/> <path id="path1397" d="m -79.044267,19.14922 c 0,0 6.383073,-5.953125 11.046354,-0.892969 1.984375,2.513542 1.355989,6.482291 -1.620573,6.250781 -1.35599,-0.264583 -0.330729,-3.274219 -3.604948,-3.704166 -3.274219,-0.429948 -6.085417,0.892968 -5.820833,-1.653646 z" style="fill:#f3a468;fill-opacity:1;stroke:none;stroke-width:0.26281315px;stroke-linecap:butt;stroke-linejoin:miter;stroke-opacity:1"/> <path id="path1401" d="m -24.804687,19.843751 c 0,0 9.128125,6.746874 7.408334,13.295311 -0.79375,3.373438 -1.785938,5.886979 -3.108855,4.101042 -1.322916,-1.785938 -0.198437,-3.439584 0.132292,-5.357813 0.330729,-1.918229 -7.342188,-10.715623 -4.431771,-12.03854 z" style="fill:#f3a468;fill-opacity:1;stroke:none;stroke-width:0.26281315px;stroke-linecap:butt;stroke-linejoin:miter;stroke-opacity:1"/> <path id="path1403" d="m -50.046217,23.160836 c 0.467722,0 24.602159,2.057975 28.624565,17.399246 0.561266,6.267469 -4.022406,4.022405 -10.476964,2.151518 -6.454561,-1.870885 -10.851145,0.467722 -14.68646,-6.735191 -3.835318,-7.202914 -6.548104,-12.160763 -3.461141,-12.815573 z" style="fill:#f3a468;fill-opacity:1;stroke:none;stroke-width:0.26281315px;stroke-linecap:butt;stroke-linejoin:miter;stroke-opacity:1"/> <path id="path1405" d="m -59.398955,43.160156 c 0,0 3.340365,0.297656 3.241146,1.885156 -0.09922,1.5875 -0.661458,1.686719 -1.554427,0.892969 -0.892969,-0.79375 -3.373438,-2.546615 -1.686719,-2.778125 z" style="fill:#b4520e;fill-opacity:1;stroke:none;stroke-width:0.26281315px;stroke-linecap:butt;stroke-linejoin:miter;stroke-opacity:1"/> <path id="path1407" d="m -37.967708,43.755468 c 0,0 1.951302,1.918229 1.5875,3.075781 -0.363802,1.157552 -1.686719,0.694532 -2.282031,0.165365 -0.595313,-0.529167 -0.727604,-3.439583 0.694531,-3.241146 z" style="fill:#b4520e;fill-opacity:1;stroke:none;stroke-width:0.26281315px;stroke-linecap:butt;stroke-linejoin:miter;stroke-opacity:1"/> <path id="path1409" d="m -50.105468,53.478906 c 0.165364,0 1.389062,0.09922 2.579687,0.09922 1.190625,0 5.622396,0.03307 5.423959,2.38125 -0.198438,2.348177 1.02526,3.042709 -1.322917,2.38125 -2.348177,-0.661458 -5.390885,-1.256771 -5.986198,-2.877343 -0.595312,-1.620573 -1.620573,-1.819011 -0.694531,-1.984375 z" style="fill:#b4520e;fill-opacity:1;stroke:none;stroke-width:0.26281315px;stroke-linecap:butt;stroke-linejoin:miter;stroke-opacity:1"/> <path id="path1411" d="m -51.402609,48.885527 c 0,0 0.46772,-1.777344 3.928861,-0.701582 3.461139,1.075759 7.857723,1.403165 10.196333,4.817533 2.338607,3.414366 1.543481,4.723987 -0.18709,3.928862 -1.730571,-0.795129 -1.96443,-2.478927 -4.162721,-3.554685 -2.198293,-1.075759 -6.220698,-1.777342 -7.530319,-1.543482 -1.309622,0.23386 -3.133736,-2.338609 -2.245064,-2.946646 z" style="fill:#ffbf73;fill-opacity:1;stroke:none;stroke-width:0.26281315px;stroke-linecap:butt;stroke-linejoin:miter;stroke-opacity:1"/> <path id="path1413" d="m -19.777603,45.442187 c 0,0 4.436333,14.200939 -6.695443,21.778028 -4.115951,3.180509 -4.490128,0.18709 -2.619241,-2.057974 1.870888,-2.245066 7.296458,-7.670636 7.109369,-12.441396 -0.187088,-4.770763 0.668856,-8.009212 2.205315,-7.278658 z" style="fill:#f3a468;fill-opacity:1;stroke:none;stroke-width:0.26281315px;stroke-linecap:butt;stroke-linejoin:miter;stroke-opacity:1"/> <path id="path1415" d="m -41.25305,81.626042 c 0.374177,-0.09354 -6.173925,1.964431 -4.490127,8.044812 1.683798,6.080382 13.376838,20.018486 18.147599,17.960516 4.770761,-2.05798 6.735192,-6.08039 4.864305,-12.534943 -1.870886,-6.454561 -3.367595,-14.21874 -3.92886,-16.557347 -0.561266,-2.33861 -5.425573,-2.525697 -14.592917,3.086962 z" style="fill:#f3a468;fill-opacity:1;stroke:none;stroke-width:0.26281315px;stroke-linecap:butt;stroke-linejoin:miter;stroke-opacity:1"/> <path id="path1417" d="m -22.291145,72.363541 c 0,0 7.60677,-0.264584 13.1630204,12.36927 3.9026041,10.186459 -0.1322917,9.392709 -2.1828124,5.09323 -2.050521,-4.29948 -4.630208,-12.633854 -11.509375,-14.353646 -3.241145,-0.529167 -0.661458,-3.373438 0.529167,-3.108854 z" style="fill:#f3a468;fill-opacity:1;stroke:none;stroke-width:0.26281315px;stroke-linecap:butt;stroke-linejoin:miter;stroke-opacity:1"/> <path id="path1421" d="m -84.005205,81.888541 c 0,0 -19.446875,30.427079 -14.155208,40.878119 3.307292,4.49792 5.159375,-7.14374 6.879167,-13.62604 1.719791,-6.48229 8.334375,-25.399996 7.276041,-27.252079 z" style="fill:#f3a468;fill-opacity:1;stroke:none;stroke-width:0.26281315px;stroke-linecap:butt;stroke-linejoin:miter;stroke-opacity:1"/> <path id="path1423" d="m -70.532426,110.25061 c 0,0 18.054056,4.11595 20.673298,15.15418 1.122532,5.42557 -1.403165,1.49671 -2.057977,-0.65481 -0.654809,-2.15152 -7.39,-11.41241 -19.831396,-10.94469 -6.548104,-0.0935 -3.461141,-4.8643 1.216075,-3.55468 z" style="fill:#f3a468;fill-opacity:1;stroke:none;stroke-width:0.26281315px;stroke-linecap:butt;stroke-linejoin:miter;stroke-opacity:1"/> <path id="path1427" d="m -0.74835463,117.8277 c 0,0 5.89329283,8.51253 2.99341853,14.03165 -2.89987422,5.51911 -2.05797524,3.55468 -1.77734225,-0.46772 0.28063298,-4.02241 -2.15151965,-13.84456 -1.21607628,-13.56393 z" style="fill:#f3a468;fill-opacity:1;stroke:none;stroke-width:0.26281315px;stroke-linecap:butt;stroke-linejoin:miter;stroke-opacity:1"/> <path id="path1429" d="m -33.629187,115.20846 c 0,0 2.057974,2.94664 3.975635,2.75956 1.917657,-0.18709 14.218737,-4.16273 19.03627,-2.38538 4.3030397,1.54348 2.9934189,-0.98222 0.09354,-1.77735 -2.899874,-0.79512 -12.815574,-3.64823 -23.10545,1.40317 z" style="fill:#f3a468;fill-opacity:1;stroke:none;stroke-width:0.26281315px;stroke-linecap:butt;stroke-linejoin:miter;stroke-opacity:1"/> <path id="path1431" d="m -11.45918,117.12612 c 0,0 10.2898759,4.0224 10.4301924,11.83335 -0.1870887,6.2207 -1.5902537,6.82874 -3.8353177,5.28526 -2.2450639,-1.54348 -1.169304,-6.87551 -3.5546844,-10.10279 -2.3853803,-3.22728 -4.7707613,-7.01582 -3.0401903,-7.01582 z" style="fill:#ffbf73;fill-opacity:1;stroke:none;stroke-width:0.26281315px;stroke-linecap:butt;stroke-linejoin:miter;stroke-opacity:1"/> <path id="path1433" d="m -70.643746,115.49062 c 0,0 14.618229,0.66146 18.388541,11.64167 0.859896,5.35781 -1.389063,5.42396 -3.373437,2.3151 -1.984375,-3.10885 -6.482292,-11.1125 -14.618229,-12.17083 -5.291667,-0.79375 -2.116667,-2.11667 -0.396875,-1.78594 z" style="fill:#ffbf73;fill-opacity:1;stroke:none;stroke-width:0.26281315px;stroke-linecap:butt;stroke-linejoin:miter;stroke-opacity:1"/> </g> </g> </svg>